<svg width="24" height="24" viewBox="0 0 24 24" fill="none" xmlns="http://www.w3.org/2000/svg">
<mask id="mask0_167_959" style="mask-type:alpha" maskUnits="userSpaceOnUse" x="0" y="0" width="24" height="24">
<rect width="24" height="24" fill="#D9D9D9"/>
</mask>
<g mask="url(#mask0_167_959)">
<path d="M4.30775 20.5C3.80258 20.5 3.375 20.325 3.025 19.975C2.675 19.625 2.5 19.1974 2.5 18.6923V5.30775C2.5 4.80258 2.675 4.375 3.025 4.025C3.375 3.675 3.80258 3.5 4.30775 3.5H19.6923C20.1974 3.5 20.625 3.675 20.975 4.025C21.325 4.375 21.5 4.80258 21.5 5.30775V18.6923C21.5 19.1974 21.325 19.625 20.975 19.975C20.625 20.325 20.1974 20.5 19.6923 20.5H4.30775ZM7.13475 16.6152H16.8652C17.0777 16.6152 17.2559 16.5434 17.3997 16.3997C17.5434 16.2559 17.6152 16.0777 17.6152 15.865C17.6152 15.6525 17.5434 15.4744 17.3997 15.3308C17.2559 15.1873 17.0777 15.1155 16.8652 15.1155H7.13475C6.92225 15.1155 6.74408 15.1873 6.60025 15.331C6.45658 15.4748 6.38475 15.6531 6.38475 15.8658C6.38475 16.0782 6.45658 16.2563 6.60025 16.4C6.74408 16.5435 6.92225 16.6152 7.13475 16.6152ZM7.13475 12.75H9.327C9.5395 12.75 9.71758 12.6781 9.86125 12.5343C10.0051 12.3906 10.077 12.2125 10.077 12V8.13475C10.077 7.92225 10.0051 7.74408 9.86125 7.60025C9.71758 7.45658 9.5395 7.38475 9.327 7.38475H7.13475C6.92225 7.38475 6.74408 7.45658 6.60025 7.60025C6.45658 7.74408 6.38475 7.92225 6.38475 8.13475V12C6.38475 12.2125 6.45658 12.3906 6.60025 12.5343C6.74408 12.6781 6.92225 12.75 7.13475 12.75ZM13.0193 12.75H16.8652C17.0777 12.75 17.2559 12.6781 17.3997 12.5343C17.5434 12.3904 17.6152 12.2122 17.6152 11.9998C17.6152 11.7871 17.5434 11.609 17.3997 11.4655C17.2559 11.3218 17.0777 11.25 16.8652 11.25H13.0193C12.8068 11.25 12.6286 11.3219 12.4848 11.4658C12.3411 11.6096 12.2692 11.7878 12.2692 12.0003C12.2692 12.2129 12.3411 12.391 12.4848 12.5345C12.6286 12.6782 12.8068 12.75 13.0193 12.75ZM13.0193 8.8845H16.8652C17.0777 8.8845 17.2559 8.81267 17.3997 8.669C17.5434 8.52517 17.6152 8.34692 17.6152 8.13425C17.6152 7.92175 17.5434 7.74367 17.3997 7.6C17.2559 7.4565 17.0777 7.38475 16.8652 7.38475H13.0193C12.8068 7.38475 12.6286 7.45658 12.4848 7.60025C12.3411 7.74408 12.2692 7.92233 12.2692 8.135C12.2692 8.3475 12.3411 8.52558 12.4848 8.66925C12.6286 8.81275 12.8068 8.8845 13.0193 8.8845Z" fill="#4E5666"/>
</g>
</svg>
