<svg width="24" height="24" viewBox="0 0 24 24" fill="none" xmlns="http://www.w3.org/2000/svg">
<g clip-path="url(#clip0_160_640)">
<path d="M12 1C12.2652 1 12.5196 1.10536 12.7071 1.29289C12.8946 1.48043 13 1.73478 13 2V3.055C15.029 3.2822 16.9206 4.19226 18.3644 5.63589C19.8082 7.07951 20.7185 8.97098 20.946 11H22C22.2652 11 22.5196 11.1054 22.7071 11.2929C22.8946 11.4804 23 11.7348 23 12C23 12.2652 22.8946 12.5196 22.7071 12.7071C22.5196 12.8946 22.2652 13 22 13H20.945C20.7176 15.0287 19.8076 16.9199 18.3642 18.3635C16.9208 19.8071 15.0297 20.7174 13.001 20.945L13 22C13 22.2652 12.8946 22.5196 12.7071 22.7071C12.5196 22.8946 12.2652 23 12 23C11.7348 23 11.4804 22.8946 11.2929 22.7071C11.1054 22.5196 11 22.2652 11 22V20.945C8.97129 20.7176 7.08005 19.8076 5.63646 18.3642C4.19287 16.9208 3.28262 15.0297 3.055 13.001L2 13C1.73478 13 1.48043 12.8946 1.29289 12.7071C1.10536 12.5196 1 12.2652 1 12C1 11.7348 1.10536 11.4804 1.29289 11.2929C1.48043 11.1054 1.73478 11 2 11H3.055C3.28241 8.97114 4.19257 7.07978 5.63618 5.63618C7.07978 4.19257 8.97114 3.28241 11 3.055V2C11 1.73478 11.1054 1.48043 11.2929 1.29289C11.4804 1.10536 11.7348 1 12 1ZM12 5C11.0807 5 10.1705 5.18106 9.32122 5.53284C8.47194 5.88463 7.70026 6.40024 7.05025 7.05025C6.40024 7.70026 5.88463 8.47194 5.53284 9.32122C5.18106 10.1705 5 11.0807 5 12C5 12.9193 5.18106 13.8295 5.53284 14.6788C5.88463 15.5281 6.40024 16.2997 7.05025 16.9497C7.70026 17.5998 8.47194 18.1154 9.32122 18.4672C10.1705 18.8189 11.0807 19 12 19C13.8565 19 15.637 18.2625 16.9497 16.9497C18.2625 15.637 19 13.8565 19 12C19 10.1435 18.2625 8.36301 16.9497 7.05025C15.637 5.7375 13.8565 5 12 5ZM12 8C12.7911 8 13.5645 8.2346 14.2223 8.67412C14.8801 9.11365 15.3928 9.73836 15.6955 10.4693C15.9983 11.2002 16.0775 12.0044 15.9231 12.7804C15.7688 13.5563 15.3878 14.269 14.8284 14.8284C14.269 15.3878 13.5563 15.7688 12.7804 15.9231C12.0044 16.0775 11.2002 15.9983 10.4693 15.6955C9.73836 15.3928 9.11365 14.8801 8.67412 14.2223C8.2346 13.5645 8 12.7911 8 12L8.005 11.8C8.05631 10.775 8.4996 9.80901 9.24319 9.10172C9.98677 8.39443 10.9738 8 12 8Z" fill="#4E5666"/>
</g>
<defs>
<clipPath id="clip0_160_640">
<rect width="24" height="24" fill="white"/>
</clipPath>
</defs>
</svg>
