<svg width="24" height="24" viewBox="0 0 24 24" fill="none" xmlns="http://www.w3.org/2000/svg">
<mask id="mask0_167_658" style="mask-type:alpha" maskUnits="userSpaceOnUse" x="0" y="0" width="24" height="24">
<rect width="24" height="24" fill="#D9D9D9"/>
</mask>
<g mask="url(#mask0_167_658)">
<path d="M17.4703 17.5338C17.8772 17.1523 18.0859 16.625 18.0962 15.952C18.1064 15.3403 17.9028 14.8284 17.4855 14.4163C17.0682 14.0041 16.5538 13.798 15.9423 13.798C15.3308 13.798 14.8189 14.0041 14.4068 14.4163C13.9946 14.8284 13.7885 15.3403 13.7885 15.952C13.7885 16.5635 13.9946 17.0753 14.4068 17.4875C14.8189 17.8997 15.3308 18.1058 15.9423 18.1058C16.5538 18.1058 17.0631 17.9151 17.4703 17.5338ZM15.9423 19.6058C14.9384 19.6058 14.0785 19.2478 13.3625 18.5318C12.6465 17.8158 12.2885 16.9558 12.2885 15.952C12.2885 14.9482 12.6465 14.0883 13.3625 13.3723C14.0785 12.6561 14.9384 12.298 15.9423 12.298C16.9461 12.298 17.806 12.6561 18.522 13.3723C19.238 14.0883 19.596 14.9482 19.596 15.952C19.596 16.3288 19.5454 16.6849 19.4443 17.0203C19.3429 17.3554 19.1942 17.6666 18.998 17.9537L20.973 19.9288C21.1115 20.0673 21.1823 20.2413 21.1855 20.451C21.1887 20.6605 21.1211 20.8345 20.9827 20.973C20.8442 21.1178 20.6686 21.1887 20.4557 21.1855C20.2429 21.1823 20.0673 21.1115 19.9288 20.973L17.9538 18.998C17.6666 19.2007 17.3554 19.3526 17.0203 19.4537C16.6849 19.5551 16.3256 19.6058 15.9423 19.6058ZM4.69625 20.0268C4.40142 20.1409 4.12833 20.1083 3.877 19.9288C3.62567 19.7493 3.5 19.5038 3.5 19.1923V6.077C3.5 5.8795 3.55292 5.70225 3.65875 5.54525C3.76442 5.38825 3.91283 5.2745 4.104 5.204L8.40775 3.74425C8.60508 3.67375 8.8025 3.6385 9 3.6385C9.1975 3.6385 9.39492 3.67375 9.59225 3.74425L15 5.6385L19.3038 3.97325C19.5986 3.85908 19.8717 3.88692 20.123 4.05675C20.3743 4.22658 20.5 4.46408 20.5 4.76925V10.8845C20.5 11.1423 20.3795 11.3213 20.1385 11.4213C19.8975 11.5213 19.675 11.484 19.471 11.3095C18.9595 10.9135 18.4051 10.6138 17.8077 10.4105C17.2102 10.2073 16.5884 10.1058 15.9423 10.1058H15.6087C15.4939 10.1058 15.3827 10.116 15.275 10.1365C15.0007 10.1635 14.7613 10.0975 14.5568 9.9385C14.3523 9.7795 14.25 9.57117 14.25 9.3135V6.927L9.75 5.35375V17.1385C9.75 17.423 9.6705 17.6791 9.5115 17.9068C9.3525 18.1343 9.14417 18.2999 8.8865 18.4038L4.69625 20.0268Z" fill="#4E5666"/>
</g>
</svg>
